<?xml version="1.0" encoding="utf-8"?>
<!-- Generator: Adobe Illustrator 26.3.0, SVG Export Plug-In . SVG Version: 6.00 Build 0)  -->
<svg version="1.1" id="Layer_1" xmlns="http://www.w3.org/2000/svg" xmlns:xlink="http://www.w3.org/1999/xlink" x="0px" y="0px"
	 viewBox="0 0 2692.9 5584.3" style="enable-background:new 0 0 2692.9 5584.3;" xml:space="preserve">
<style type="text/css">
	.st0{fill:url(#SVGID_1_);stroke:#000000;stroke-miterlimit:10;}
	.st1{fill:url(#SVGID_00000010296927455097247350000001977458818038196097_);stroke:#000000;stroke-miterlimit:10;}
	.st2{fill:url(#SVGID_00000033343879802581284220000000548270698745974922_);stroke:#000000;stroke-miterlimit:10;}
	.st3{fill:url(#SVGID_00000114781039556770731000000011629016210851625148_);stroke:#000000;stroke-miterlimit:10;}
	.st4{fill:url(#SVGID_00000025405862142860242770000002300113275146238373_);stroke:#000000;stroke-miterlimit:10;}
</style>
<g>
	<linearGradient id="SVGID_1_" gradientUnits="userSpaceOnUse" x1="1042.1843" y1="2732.1985" x2="1806.1058" y2="2732.1985">
		<stop  offset="0" style="stop-color:#983293"/>
		<stop  offset="1" style="stop-color:#2B3990"/>
	</linearGradient>
	<path class="st0" d="M1262.9,2441.8c0-25.6,1-49.4-0.2-73c-3.8-74.8,57.5-133.5,119.9-144c77.2-13.1,149.2,26,172.8,95.2
		c5.1,15.1,6.3,31.8,7.3,47.9c1.2,19.7,0.9,39.6,0.1,59.4c-0.5,11.2,2.6,15,14.3,14.8c39.6-0.7,79.2-0.3,118.9-0.3
		c35.7,0,51.7,14.2,54.9,49.7c7.6,84.8,14.7,169.6,22.3,254.4c9.1,102.1,18.6,204.2,27.7,306.3c2,22.5,4.8,45,5.1,67.5
		c1.2,67.8-48.5,120.8-116.1,121.6c-104.2,1.2-208.4,0.8-312.7,0.2c-39.4-0.2-62.2-33.4-50-71.3c14.5-44.8,29.8-89.2,44.4-134
		c17.1-52.5-7-102.2-56.3-117.3c-20.5-6.3-40.7-4.3-60.6,2.3c-46.9,15.5-93.8,31.3-140.8,46.5c-35.2,11.4-69.6-8.4-71.5-42
		c-1-17.6,1.5-35.6,3-53.3c5-58,10.4-115.9,15.6-173.9c5.3-58.7,10.6-117.5,15.9-176.2c1-11.4,2.2-22.9,3-34.3
		c2.1-29.6,19.3-46,49.3-46.3c39.2-0.3,78.5-0.1,117.7-0.1C1251.6,2441.8,1256.3,2441.8,1262.9,2441.8z M1117.1,2478.5
		c-3.4,37.5-6.7,74.5-10.1,111.4c-4.4,49.3-8.8,98.6-13.2,147.9c-5.1,57.6-10.5,115.1-15.2,172.8c-1.8,22.6,7.3,29.1,28.5,22.1
		c45.8-15.2,91.6-30.4,137.3-45.8c35.9-12,70.9-11.4,104.5,7.2c55,30.3,77.6,91.6,57.1,154.3c-14.4,44-29.3,87.8-43.8,131.7
		c-5.3,16.2,1,25.2,18,26.3c1.6,0.1,3.2,0.1,4.8,0.1c98.3,0,196.6,0.1,294.9-0.1c9.4,0,19.1-0.8,28.2-3.2
		c42.9-11.3,66.3-48.9,61.2-96.9c-2.3-21.7-4.3-43.3-6.3-65c-7.5-84.8-14.8-169.6-22.3-254.4c-7.8-88-15.6-175.9-23.5-263.8
		c-1.3-14.8-3.1-29.6-4.6-44.3c-50.4,0-99.4,0-149.7,0c0,7.4,0.1,14.1,0,20.7c-0.1,15,0.1,30.1-0.7,45.1
		c-0.5,10.3-7.3,16.2-17.3,15.8c-9.9-0.4-15.9-6.6-16-17.2c-0.1-14.3-0.1-28.5-0.1-42.8c0-7.3,0-14.6,0-21.6c-78.6,0-154.9,0-232,0
		c0,6.8,0,12.8,0,18.7c0,15.1,0.2,30.1-0.3,45.2c-0.2,8.1-3.9,15.8-12.4,16.6c-5.8,0.5-13.1-2.1-17.6-5.8c-3.1-2.5-3.5-9.3-3.6-14.3
		c-0.4-20.1-0.2-40.2-0.2-60.7C1213.5,2478.5,1165.7,2478.5,1117.1,2478.5z M1297.4,2440.7c77.6,0,154.1,0,230.2,0
		c0-30.8,0.5-60.4-0.2-90c-0.4-17.5-7.8-33-18.3-46.8c-31.6-41.4-84.6-58.6-133.9-42.1c-42.1,14.1-71.9,41.8-77.3,87.4
		C1294.6,2378.8,1297.4,2409.3,1297.4,2440.7z"/>
	
		<linearGradient id="SVGID_00000106849986093324512160000002967105732558100394_" gradientUnits="userSpaceOnUse" x1="969.5902" y1="3139.7417" x2="1296.3276" y2="3139.7417">
		<stop  offset="0" style="stop-color:#983293"/>
		<stop  offset="1" style="stop-color:#2B3990"/>
	</linearGradient>
	<path style="fill:url(#SVGID_00000106849986093324512160000002967105732558100394_);stroke:#000000;stroke-miterlimit:10;" d="
		M1279.5,2976.7c10.3,0,17.5,7.2,16.8,16c-0.3,4.3-1.7,8.5-3.1,12.6c-30.8,93.1-61.7,186.3-92.5,279.4c-0.7,2.3-0.9,5.1-2.4,6.6
		c-4.5,4.4-9.3,11.1-14.4,11.4c-5,0.4-12.6-4.6-15.4-9.4c-7.9-13.7-13.8-28.4-20.6-42.8c-10.7-22.9-21.6-45.8-32.1-68.8
		c-5.2-11.3-13.1-19.3-24.5-24.5c-36-16.5-71.7-33.5-107.6-50.1c-7.5-3.5-14.6-7.1-14.1-16.9c0.6-9.9,7.6-13.7,16.1-16.5
		c94.6-31.3,189.2-62.9,283.8-94.3C1273.3,2978.2,1277.1,2977.3,1279.5,2976.7z"/>
	
		<linearGradient id="SVGID_00000033366389078840960320000001952082048199685776_" gradientUnits="userSpaceOnUse" x1="916.3602" y1="3351.4285" x2="1065.7699" y2="3202.6577">
		<stop  offset="0" style="stop-color:#983293"/>
		<stop  offset="1" style="stop-color:#2B3990"/>
	</linearGradient>
	<path style="fill:url(#SVGID_00000033366389078840960320000001952082048199685776_);stroke:#000000;stroke-miterlimit:10;" d="
		M1046.7,3198.5l-41.3,41.2l-2.9,2.8l-22.4,22.3l-1.2,1.2l-17.5,17.4l-4.9,4.9l0.1,0.1l-19.1,19l-25.1,25
		c-4.1,4.1-3.4,11.6,1.6,16.6l4.8,4.8c5,5,12.4,5.8,16.6,1.7l21.2-21.1l20.2-20.1l2.9-2.8l1-1l21.4-21.3l1.2-1.2l22.4-22.3l-0.1-0.1
		l44.2-44c4.1-4.1,3.4-11.6-1.6-16.6l-4.8-4.8C1058.3,3195.2,1050.9,3194.4,1046.7,3198.5z"/>
	
		<linearGradient id="SVGID_00000013883258906706766260000009350776181596693140_" gradientUnits="userSpaceOnUse" x1="987.0627" y1="3356.2695" x2="1103.0417" y2="3240.7864">
		<stop  offset="0" style="stop-color:#983293"/>
		<stop  offset="1" style="stop-color:#2B3990"/>
	</linearGradient>
	<path style="fill:url(#SVGID_00000013883258906706766260000009350776181596693140_);stroke:#000000;stroke-miterlimit:10;" d="
		M1088.2,3237.6l-32.1,31.9l-2.2,2.2l-17.4,17.3l-0.9,0.9l-13.6,13.5l-3.8,3.8l0.1,0.1l-14.8,14.8l-19.5,19.4
		c-3.2,3.2-2.7,9,1.2,12.9l3.7,3.7c3.9,3.9,9.7,5.6,12.9,1.3l16.4-16.4l15.7-15.6l2.2-2.2l0.8-0.8l16.6-16.5l0.9-0.9l17.4-17.3
		l-0.1-0.1l34.3-34.2c3.2-3.2,2.7-9-1.2-12.9l-3.7-3.7C1097.2,3234.9,1091.5,3234.4,1088.2,3237.6z"/>
	
		<linearGradient id="SVGID_00000005234707490091886310000015640555418492990385_" gradientUnits="userSpaceOnUse" x1="892.2429" y1="3291.1921" x2="1014.3497" y2="3169.6077">
		<stop  offset="0" style="stop-color:#983293"/>
		<stop  offset="1" style="stop-color:#2B3990"/>
	</linearGradient>
	<path style="fill:url(#SVGID_00000005234707490091886310000015640555418492990385_);stroke:#000000;stroke-miterlimit:10;" d="
		M998.8,3166.2l-33.8,33.6l-2.3,2.3l-18.3,18.2l-1,1l-14.3,14.2l-4,4l0.1,0.1l-15.6,15.5l-20.5,20.4c-3.4,3.4-2.8,9.4,1.3,13.6
		l3.9,3.9c4.1,4.1,10.2,4.7,13.6,1.4l17.3-17.2l16.5-16.4l2.3-2.3l0.8-0.8l17.5-17.4l1-1l18.3-18.2l-0.1-0.1l36.1-36
		c3.4-3.4,2.8-9.4-1.3-13.6l-3.9-3.9C1008.3,3163.5,1002.2,3162.9,998.8,3166.2z"/>
</g>
</svg>
